<?xml version="1.0" ?><!DOCTYPE svg  PUBLIC '-//W3C//DTD SVG 1.1//EN'  'http://www.w3.org/Graphics/SVG/1.1/DTD/svg11.dtd'><svg enable-background="new 0 0 100 100" height="100px" id="Layer_1" version="1.1" viewBox="0 0 100 100" width="100px" xml:space="preserve" xmlns="http://www.w3.org/2000/svg" xmlns:xlink="http://www.w3.org/1999/xlink"><circle cx="50" cy="50" r="50" fill="yellow" />
<path d="M78.707,35.293l-16-16L62.414,19H50v-5c0-3.86-3.141-7-7-7s-7,3.14-7,7v5H21v74h58V35.586L78.707,35.293z M75.586,35H63  V22.414L75.586,35z M38,14c0-2.757,2.243-5,5-5s5,2.243,5,5v5H38V14z M77,91H23V21h25v20c0,3.86-3.141,7-7,7s-7-3.14-7-7V28h-2v13  c0,4.962,4.037,9,9,9s9-4.038,9-9V21h11v15c0,0.552,0.447,1,1,1h15V91z"/></svg>